<!-- Generated by otel-chdb/stpa/tools from records/controller-2f943e.md and structure.yaml (controller qs). Do not edit. -->
<svg xmlns="http://www.w3.org/2000/svg" width="760" height="742" viewBox="0 0 760 742" role="img" aria-label="Query service: control algorithm and process model" font-size="13" font-family="-apple-system, BlinkMacSystemFont, 'Segoe UI', Helvetica, Arial, sans-serif">
  <style>
svg{--bg:#ffffff;--edge:#6e7781;--tint:#eef1f4;--ink:#1f2328;--quiet:#59636e;--accent:#0969da}
@media (prefers-color-scheme:dark){svg{--bg:#0d1117;--edge:#8b949e;--tint:#1c2128;--ink:#e6edf3;--quiet:#9198a1;--accent:#4493f8}}
.bg{fill:var(--bg)}
.f-edge{fill:var(--edge)}.f-tint{fill:var(--tint)}.f-ink{fill:var(--ink)}.f-quiet{fill:var(--quiet)}.f-accent{fill:var(--accent)}.f-none{fill:none}
.s-edge{stroke:var(--edge)}.s-accent{stroke:var(--accent)}
</style>
  <rect width="100%" height="100%" rx="12" class="bg"/>
  <defs>
    <marker id="arrow" viewBox="0 0 10 10" refX="9" refY="5" markerWidth="6" markerHeight="6" orient="auto-start-reverse">
      <path d="M0 0L10 5L0 10z" class="f-edge"/>
    </marker>
  </defs>
  <text x="24" y="34" font-size="15" font-weight="600" class="f-ink">Query service: control algorithm and process model</text>
  <g stroke-width="1.25" class="f-none s-edge">
    <path d="M120 94V142" marker-end="url(#arrow)"/>
    <path d="M366 94V142" marker-end="url(#arrow)"/>
    <path d="M612 94V142" marker-end="url(#arrow)"/>
    <path d="M72 244H36V564H119V634" marker-end="url(#arrow)"/>
    <path d="M72 327H48V552H333V634" marker-end="url(#arrow)"/>
    <path d="M72 410H60V540H547V634" marker-end="url(#arrow)"/>
  </g>
  <g stroke-width="1.25" stroke-dasharray="5 4" class="f-none s-edge">
    <path d="M394 142V94" marker-end="url(#arrow)"/>
    <path d="M640 142V94" marker-end="url(#arrow)"/>
    <path d="M213 634V576H700V297"/>
    <path d="M700 350H688" marker-end="url(#arrow)"/>
    <path d="M700 403H688" marker-end="url(#arrow)"/>
    <path d="M700 297H688" marker-end="url(#arrow)"/>
    <path d="M427 634V588H712V297"/>
    <path d="M712 297H688" marker-end="url(#arrow)"/>
    <path d="M641 634V600H724V244"/>
    <path d="M724 244H688" marker-end="url(#arrow)"/>
  </g>
  <text x="112" y="122" text-anchor="end" font-size="11.5" class="f-quiet">access, routing</text>
  <text x="358" y="122" text-anchor="end" font-size="11.5" class="f-quiet">requests</text>
  <text x="402" y="122" font-size="11.5" class="f-quiet">complete-through</text>
  <text x="604" y="122" text-anchor="end" font-size="11.5" class="f-quiet">evaluate</text>
  <text x="648" y="122" font-size="11.5" class="f-quiet">values</text>
  <g>
    <rect x="72" y="142" width="616" height="380" rx="8" stroke-width="1.25" class="f-none s-edge"/>
    <text x="84" y="166" font-weight="600" class="f-ink">Query service</text>
    <text x="84" y="183" font-size="11.5" class="f-quiet">resolves entities; routes to central or the lake; returns a complete-through time with every</text>
    <text x="84" y="198" font-size="11.5" class="f-quiet">result</text>
    <rect x="78" y="210" width="300" height="306" rx="6" stroke="none" class="f-tint"/>
    <text x="84" y="226" font-size="10.5" font-weight="600" class="f-quiet">CONTROL ALGORITHM</text>
    <rect x="382" y="210" width="300" height="306" rx="6" stroke="none" class="f-tint"/>
    <text x="388" y="226" font-size="10.5" font-weight="600" class="f-quiet">PROCESS MODEL</text>
    <text x="84" y="248" font-weight="600" font-size="12" class="f-ink">answer from central</text>
    <text x="84" y="263" font-size="11.5" class="f-ink">▸ SQL</text>
    <text x="84" y="278" font-size="11.5" class="f-quiet">when a request or an evaluation arrives within</text>
    <text x="84" y="293" font-size="11.5" class="f-quiet">the caller's grants and central covers its</text>
    <text x="84" y="308" font-size="11.5" class="f-quiet">range</text>
    <text x="84" y="331" font-weight="600" font-size="12" class="f-ink">route to the lake</text>
    <text x="84" y="346" font-size="11.5" class="f-ink">▸ plans, reads</text>
    <text x="84" y="361" font-size="11.5" class="f-quiet">when the range is older than central keeps, or</text>
    <text x="84" y="376" font-size="11.5" class="f-quiet">central is degraded: route to the lake and say</text>
    <text x="84" y="391" font-size="11.5" class="f-quiet">so</text>
    <text x="84" y="414" font-weight="600" font-size="12" class="f-ink">resolve entities</text>
    <text x="84" y="429" font-size="11.5" class="f-ink">▸ lookups</text>
    <text x="84" y="444" font-size="11.5" class="f-quiet">when a query names entities</text>
    <text x="388" y="445" font-weight="600" font-size="12" class="f-ink">grants</text>
    <text x="388" y="460" font-size="11.5" class="f-quiet">The caller's grants: (role, cluster,</text>
    <text x="388" y="475" font-size="11.5" class="f-quiet">namespace) tuples (D38)</text>
    <text x="388" y="490" font-size="11.5" font-style="italic" class="f-quiet">no feedback: the operators' access</text>
    <text x="388" y="505" font-size="11.5" font-style="italic" class="f-quiet">configuration and the caller's verified token</text>
    <text x="388" y="354" font-weight="600" font-size="12" class="f-ink">complete_through  ◂ rows, status</text>
    <text x="388" y="369" font-size="11.5" class="f-quiet">Per cluster, signal and lane, the time central</text>
    <text x="388" y="384" font-size="11.5" class="f-quiet">is complete through (D29)</text>
    <text x="388" y="407" font-weight="600" font-size="12" class="f-ink">basis  ◂ rows, status</text>
    <text x="388" y="422" font-size="11.5" class="f-quiet">The custody time an answer is at (D30)</text>
    <text x="388" y="301" font-weight="600" font-size="12" class="f-ink">source_coverage  ◂ rows, status; rows</text>
    <text x="388" y="316" font-size="11.5" class="f-quiet">Which time range each source (central, the</text>
    <text x="388" y="331" font-size="11.5" class="f-quiet">lake) covers, and whether it is healthy</text>
    <text x="388" y="248" font-weight="600" font-size="12" class="f-ink">entities  ◂ entities</text>
    <text x="388" y="263" font-size="11.5" class="f-quiet">The entities a query names, resolved to</text>
    <text x="388" y="278" font-size="11.5" class="f-quiet">resource ids</text>
  </g>
  <g>
    <rect x="24" y="58" width="220" height="36" rx="8" fill-opacity="0.12" stroke-width="2" class="f-accent s-accent"/>
    <text x="36" y="81" font-weight="600" class="f-ink">Platform operators</text>
  </g>
  <g>
    <rect x="270" y="58" width="220" height="36" rx="8" stroke-width="1.25" class="f-none s-edge"/>
    <text x="282" y="81" font-weight="600" class="f-ink">Telemetry UI</text>
  </g>
  <g>
    <rect x="516" y="58" width="220" height="36" rx="8" stroke-width="1.25" class="f-none s-edge"/>
    <text x="528" y="81" font-weight="600" class="f-ink">Alerting engine</text>
  </g>
  <g>
    <rect x="72" y="634" width="188" height="44" rx="8" stroke-width="1.25" class="f-tint s-edge"/>
    <text x="84" y="661" font-weight="600" class="f-ink">Central ClickHouse</text>
  </g>
  <g>
    <rect x="286" y="634" width="188" height="44" rx="8" stroke-width="1.25" class="f-tint s-edge"/>
    <text x="298" y="661" font-weight="600" class="f-ink">Lake snapshots</text>
  </g>
  <g>
    <rect x="500" y="634" width="188" height="44" rx="8" stroke-width="1.25" class="f-tint s-edge"/>
    <text x="512" y="661" font-weight="600" class="f-ink">Entity catalog</text>
  </g>
  <g>
    <line x1="24" x2="56" y1="718" y2="718" stroke-width="1.25" class="s-edge"/>
    <text x="64" y="722" font-size="11.5" class="f-quiet">control action, from the rule that issues it</text>
    <line x1="369" x2="401" y1="718" y2="718" stroke-width="1.25" stroke-dasharray="5 4" class="s-edge"/>
    <text x="409" y="722" font-size="11.5" class="f-quiet">feedback, into each variable it updates</text>
  </g>
</svg>
